<?xml version="1.0" standalone="yes"?>
<svg xmlns="http://www.w3.org/2000/svg" width="1024" height="1024">
<path style="fill:#010101; stroke:none;" d="M0 0L0 1024L1024 1024L1024 0L0 0z"/>
<path style="fill:#e52529; stroke:none;" d="M648 671L647 671C641.597 652.63 626.754 634.627 617.281 618C604.501 595.57 591.383 573.328 578.424 551C571.322 538.762 565.067 524.265 554.829 514.286C534.746 494.713 502.704 491.785 479 506.468C458.368 519.247 447.35 547.587 435.719 568C410.351 612.524 384.298 656.679 358.576 701L300.576 801C283.061 831.179 266.324 858.797 274.425 895C276.45 904.047 279.859 913.036 284.604 921C314.211 970.692 366.975 965 417 965L843 965C898.299 965 973.478 979.489 1008.56 925C1023.22 902.233 1027.78 871.837 1018.92 846C1011.05 823.042 995.548 801.89 983.424 781C944.166 713.356 904.454 645.944 865.719 578C855.228 559.597 844.638 541.2 833.799 523C829.81 516.301 820.882 505.786 820.093 498C819.532 492.468 826.307 484.603 829.011 480C837.405 465.707 845.74 451.372 854 437C876.273 398.246 899.143 359.831 921.281 321C930.749 304.391 945.604 286.343 951 268L952 268C953.254 283.351 959.057 311.712 968.532 323.996C979.522 338.244 1003.5 339.46 1015.67 325.907C1033.66 305.882 1014.44 268.117 1008.87 246C1004.17 227.302 999.297 208.538 994 190C991.063 179.721 988.654 169.72 978.996 163.559C966.777 155.765 952.866 159.849 940 163.424C912.747 170.998 885.211 177.567 858 185.29C845.206 188.921 831.309 190.121 822.329 201.001C809.032 217.113 817.131 244.68 838 249.471C856.318 253.675 880.464 242.94 898 238L831.424 353L783 436C767.227 402.216 745.147 370.259 726.424 338C690.065 275.352 653.447 212.839 617.421 150C594.189 109.476 573.301 64.1674 521 59.1697C490.69 56.2735 460.798 68.4229 441.465 92C430.251 105.674 422.428 122.747 413.576 138C397.713 165.331 381.993 192.752 365.989 220C278.173 369.521 192.806 520.48 104.989 670C80.0131 712.526 55.1339 755.15 30.7191 798C18.7033 819.089 2.14459 840.797 1.03935 866C0.532735 877.553 1.08643 888.814 4.15201 900C6.48002 908.495 10.1625 916.536 14.8148 924C44.5317 971.679 98.5834 965 147 965C167.1 965 201.44 971.682 217.96 958.319C236.422 943.386 229.503 910.447 206 905.289C167.758 896.897 125.749 908.653 87 903.815C71.4194 901.869 59.5287 885.283 62.1103 870C63.3409 862.715 68.1308 856.308 71.7191 850C78.9572 837.276 86.3092 824.577 93.7994 812C116.475 773.925 138.331 735.328 160.576 697C239.292 561.37 318.584 426.045 396.579 290C421.495 246.539 447.037 203.435 472 160C480.972 144.388 489.829 120.465 511 120.015C527.648 119.662 535.857 131.978 543.281 145C553.582 163.069 564 181.107 574.603 199C617.224 270.922 658.459 343.693 700.424 416C711.842 435.673 723.454 455.24 734.719 475C738.034 480.815 746.812 490.733 746.713 497.576C746.651 501.87 741.933 507.417 739.799 511C733.692 521.254 727.767 531.635 721.85 542C705.616 570.437 689.013 598.679 672.576 627C664.603 640.738 652.485 655.752 648 671z"/>
<path style="fill:#010101; stroke:none;" d="M783 559C757.775 594.324 738.224 635.439 716.424 673C705.985 690.987 696.844 712.858 678 723.663C651.927 738.612 620.783 732.304 601.184 710C589.904 697.162 582.615 679.686 573.989 665C553.504 630.12 534.115 594.499 513 560L511 560C462.996 638.435 417.807 719.097 372.281 799C362.553 816.073 352.434 832.922 342.719 850C335.796 862.17 329.719 873.051 335.877 887C346.866 911.895 384.054 904 406 904L614 904L862 904L921 904C932.534 904 943.654 904.984 952.907 896.671C978.991 873.238 942.39 831.577 929.603 810C896.022 753.332 863.183 696.146 830.421 639C820.457 621.62 810.187 604.414 800.281 587C795.185 578.043 790.405 566.18 783 559z"/>
</svg>
