<?xml version="1.0" standalone="yes"?>
<svg xmlns="http://www.w3.org/2000/svg" width="225" height="225">
<path style="fill:#ffffff; stroke:none;" d="M0 0L0 187L1 187C8.68038 168.557 20.8798 151.213 30.9892 134C46.9924 106.752 62.7136 79.3306 78.5756 52C86.2474 38.7813 95.2997 11.7853 114 13.0972C125.423 13.8986 130.365 24.2822 135.424 33C147.174 53.2447 161.741 73.5118 171 95L173 95L197 53C193.948 53.2493 191.026 54.2107 188 54.4776C182.731 54.9425 177.17 49.1462 181.449 44.3943C185.786 39.578 209.336 32.6669 214.867 36.6073C220.973 40.9576 223.048 56.9359 224 64L225 64L225 0L0 0z"/>
<path style="fill:#f4b5b7; stroke:none;" d="M107 13L108 14L107 13z"/>
<path style="fill:#f09394; stroke:none;" d="M108 13L109 14L108 13z"/>
<path style="fill:#ea6061; stroke:none;" d="M109 13L110 14L109 13z"/>
<path style="fill:#e52226; stroke:none;" d="M142 148C137.57 137.72 126.407 111.18 114 110.109C104 109.246 100.149 117.511 95.8503 125C87.0314 140.364 78.2649 155.78 69.2006 171C64.7959 178.396 58.4807 186.881 60.5301 196C64.0809 211.8 78.7963 212 92 212L187 212C199.463 212 217.155 214.544 222.852 200C227.264 188.736 219.885 178.262 214.397 169C206.537 155.736 198.794 142.389 191.15 129C188.021 123.519 182.656 117.135 181.127 111C179.943 106.254 184.629 100.889 186.85 97C193.665 85.0606 200.132 68.5677 210 59C210.64 63.7483 214.688 78.8037 222.258 71.2577C226.387 67.1411 222.543 58.6149 221.374 54C220.053 48.7853 219.238 38.9499 213.891 36.2184C208.65 33.541 185.352 39.9211 181.604 44.419C176.264 50.8275 184.484 55.0224 190 53.8549C192.679 53.288 195.317 52.5538 198 52L173 96L171 96C166.515 80.7516 154.397 65.7378 146.424 52C140.354 41.5411 135.045 27.9722 126.671 19.1883C120.873 13.1057 111.512 11.8721 104.001 15.2137C93.9583 19.6814 89.113 34.0779 83.7994 43C68.8216 68.1494 54.2102 93.5666 39.7191 119C29.2197 137.428 18.2052 155.565 7.71914 174C3.18413 181.973 -2.20144 191.699 2.45679 201C8.27134 212.61 34.8148 217.068 45.8912 210.821C50.8267 208.038 50.0271 201.81 44.956 199.742C36.7146 196.382 26.2854 201.618 18.044 198.258C12.8215 196.129 13.1509 191.287 15.3248 187C20.1805 177.425 26.186 168.286 31.5756 159C51.3015 125.012 71.2567 91.1394 90.7191 57C95.2827 48.9949 99.7268 40.8079 104.619 33.0008C106.441 30.0933 109.016 26.08 112.997 26.466C119.6 27.1064 123.892 39.0297 126.719 44C135.673 59.7403 144.84 75.3847 154.011 91C156.793 95.7377 163.907 103.9 163.663 109.576C163.488 113.632 159.218 118.613 157.201 122C152.063 130.627 147.243 139.434 142 148z"/>
<path style="fill:#ea6061; stroke:none;" d="M115.667 13.3333L116.333 13.6667L115.667 13.3333z"/>
<path style="fill:#f4b5b7; stroke:none;" d="M117 13L118 14L117 13M104 14L105 15L104 14z"/>
<path style="fill:#ea6061; stroke:none;" d="M105 14L106 15L105 14M119 14L120 15L119 14z"/>
<path style="fill:#f4b5b7; stroke:none;" d="M120 14L121 15L120 14M102 15L103 16L102 15M122 15L123 16L122 15z"/>
<path style="fill:#ea6061; stroke:none;" d="M101 16L102 17L101 16M123 16L124 17L123 16z"/>
<path style="fill:#f4b5b7; stroke:none;" d="M98 18L99 19L98 18M126 18L127 19L126 18M127 19L128 20L127 19z"/>
<path style="fill:#ea6061; stroke:none;" d="M96 21L97 22L96 21M128 21L129 22L128 21z"/>
<path style="fill:#f4b5b7; stroke:none;" d="M95 22L96 23L95 22M129 22L130 23L129 22z"/>
<path style="fill:#f09394; stroke:none;" d="M94 24L95 25L94 24M130 24L131 25L130 24z"/>
<path style="fill:#ea6061; stroke:none;" d="M93 26L94 27L93 26M109 26L110 27L109 26z"/>
<path style="fill:#f4b5b7; stroke:none;" d="M110 26L111 27L110 26z"/>
<path style="fill:#ffffff; stroke:none;" d="M1 197L0 197L0 225L225 225L225 197L224 197C219.166 213.276 203.733 212 190 212L95 212C81.8043 212 66.1414 213.633 60.8542 198C57.7192 188.731 63.5341 180.622 68.0108 173C77.1815 157.385 86.3125 141.732 95.2809 126C98.9349 119.59 104.136 108.806 113 109.319C126.427 110.096 135.944 137.106 142 147C148.521 139.496 152.721 129.527 157.799 121C159.816 117.613 163.46 113.13 163.332 109C163.175 103.955 158.14 98.2552 155.719 94C149.05 82.2766 142.129 70.7007 135.421 59C130.458 50.3425 125.706 41.4418 120.381 33.0039C118.384 29.8393 115.361 25.6389 111.015 26.8511C106.659 28.0663 104.323 33.4188 102.281 37L86.7191 64C69.1634 94.8122 50.8367 125.188 33.2809 156C27.8716 165.494 14.3034 180.925 14.1636 191.995C14.0286 202.688 34.2566 198.727 41 199.019C44.9305 199.189 50.0117 201.105 49.534 205.996C48.8204 213.301 39.0372 212 34 212C20.4945 212 5.72005 212.891 1 197z"/>
<path style="fill:#f4b5b7; stroke:none;" d="M114 26L115 27L114 26z"/>
<path style="fill:#ea6061; stroke:none;" d="M115 26L116 27L115 26M131 26L132 27L131 26z"/>
<path style="fill:#f4b5b7; stroke:none;" d="M92 27L93 28L92 27M108 27L109 28L108 27M116 27L117 28L116 27M132 27L133 28L132 27M107 28L108 29L107 28M117 28L118 29L117 28M91 29L92 30L91 29z"/>
<path style="fill:#ea6061; stroke:none;" d="M106 29L107 30L106 29M118 29L119 30L118 29z"/>
<path style="fill:#f09394; stroke:none;" d="M133 29L134 30L133 29M90 31L91 32L90 31M105 31L106 32L105 31M119 31L120 32L119 31z"/>
<path style="fill:#ea6061; stroke:none;" d="M134 31L135 32L134 31M89 33L90 34L89 33z"/>
<path style="fill:#f4b5b7; stroke:none;" d="M104 33L105 34L104 33M120 33L121 34L120 33z"/>
<path style="fill:#ea6061; stroke:none;" d="M135 33L136 34L135 33z"/>
<path style="fill:#f4b5b7; stroke:none;" d="M88 34L89 35L88 34z"/>
<path style="fill:#ea6061; stroke:none;" d="M103 34L104 35L103 34M121 34L122 35L121 34z"/>
<path style="fill:#f4b5b7; stroke:none;" d="M136 34L137 35L136 34M208 35L209 36L208 35z"/>
<path style="fill:#ea6061; stroke:none;" d="M209 35L210 36L209 35M213 35L214 36L213 35z"/>
<path style="fill:#f4b5b7; stroke:none;" d="M214 35L215 36L214 35z"/>
<path style="fill:#f09394; stroke:none;" d="M87 36L88 37L87 36M102 36L103 37L102 36M122 36L123 37L122 36M137 36L138 37L137 36z"/>
<path style="fill:#f4b5b7; stroke:none;" d="M204 36L205 37L204 36z"/>
<path style="fill:#f09394; stroke:none;" d="M205 36L206 37L205 36z"/>
<path style="fill:#ea6061; stroke:none;" d="M215 36L216 37L215 36z"/>
<path style="fill:#f4b5b7; stroke:none;" d="M200 37L201 38L200 37z"/>
<path style="fill:#f09394; stroke:none;" d="M201 37L202 38L201 37z"/>
<path style="fill:#ea6061; stroke:none;" d="M202 37L203 38L202 37z"/>
<path style="fill:#f09394; stroke:none;" d="M216 37L217 38L216 37M86 38L87 39L86 38M101 38L102 39L101 38M123 38L124 39L123 38z"/>
<path style="fill:#ea6061; stroke:none;" d="M138 38L139 39L138 38z"/>
<path style="fill:#f09394; stroke:none;" d="M197 38L198 39L197 38z"/>
<path style="fill:#ea6061; stroke:none;" d="M198 38L199 39L198 38z"/>
<path style="fill:#f4b5b7; stroke:none;" d="M217 38L218 39L217 38M139 39L140 40L139 39M193 39L194 40L193 39z"/>
<path style="fill:#ea6061; stroke:none;" d="M194 39L195 40L194 39M217 39L218 40L217 39M85 40L86 41L85 40z"/>
<path style="fill:#f4b5b7; stroke:none;" d="M100 40L101 41L100 40M124 40L125 41L124 40M189 40L190 41L189 40z"/>
<path style="fill:#f09394; stroke:none;" d="M190 40L191 41L190 40z"/>
<path style="fill:#f4b5b7; stroke:none;" d="M84 41L85 42L84 41z"/>
<path style="fill:#ea6061; stroke:none;" d="M99 41L100 42L99 41M125 41L126 42L125 41z"/>
<path style="fill:#f4b5b7; stroke:none;" d="M140 41L141 42L140 41M185 41L186 42L185 41z"/>
<path style="fill:#f09394; stroke:none;" d="M186 41L187 42L186 41z"/>
<path style="fill:#f4b5b7; stroke:none;" d="M218 41L219 42L218 41z"/>
<path style="fill:#ea6061; stroke:none;" d="M183 42L184 43L183 42z"/>
<path style="fill:#f09394; stroke:none;" d="M218 42L219 43L218 42M83 43L84 44L83 43M98 43L99 44L98 43M126 43L127 44L126 43M141 43L142 44L141 43z"/>
<path style="fill:#f4b5b7; stroke:none;" d="M181 43L182 44L181 43z"/>
<path style="fill:#ea6061; stroke:none;" d="M218 43L219 44L218 43z"/>
<path style="fill:#f4b5b7; stroke:none;" d="M180 44L181 45L180 44z"/>
<path style="fill:#ea6061; stroke:none;" d="M82 45L83 46L82 45z"/>
<path style="fill:#f4b5b7; stroke:none;" d="M97 45L98 46L97 45M127 45L128 46L127 45z"/>
<path style="fill:#ea6061; stroke:none;" d="M142 45L143 46L142 45z"/>
<path style="fill:#f4b5b7; stroke:none;" d="M219 45L220 46L219 45M81 46L82 47L81 46M143 46L144 47L143 46M179 46L180 47L179 46z"/>
<path style="fill:#f09394; stroke:none;" d="M219 46L220 47L219 46z"/>
<path style="fill:#f4b5b7; stroke:none;" d="M96 47L97 48L96 47M128 47L129 48L128 47z"/>
<path style="fill:#f09394; stroke:none;" d="M179.333 47.6667L179.667 48.3333L179.333 47.6667z"/>
<path style="fill:#f4b5b7; stroke:none;" d="M80 48L81 49L80 48z"/>
<path style="fill:#ea6061; stroke:none;" d="M95 48L96 49L95 48M129 48L130 49L129 48z"/>
<path style="fill:#f09394; stroke:none;" d="M144 48L145 49L144 48z"/>
<path style="fill:#f4b5b7; stroke:none;" d="M179 49L180 50L179 49M220 49L221 50L220 49z"/>
<path style="fill:#f09394; stroke:none;" d="M79 50L80 51L79 50M94 50L95 51L94 50M130 50L131 51L130 50z"/>
<path style="fill:#ea6061; stroke:none;" d="M145 50L146 51L145 50M220 50L221 51L220 50z"/>
<path style="fill:#f4b5b7; stroke:none;" d="M146 51L147 52L146 51z"/>
<path style="fill:#ea6061; stroke:none;" d="M180 51L181 52L180 51M78 52L79 53L78 52z"/>
<path style="fill:#f4b5b7; stroke:none;" d="M93 52L94 53L93 52M131 52L132 53L131 52z"/>
<path style="fill:#ea6061; stroke:none;" d="M146 52L147 53L146 52z"/>
<path style="fill:#f09394; stroke:none;" d="M195 52L196 53L195 52z"/>
<path style="fill:#f4b5b7; stroke:none;" d="M196 52L197 53L196 52z"/>
<path style="fill:#f09394; stroke:none;" d="M197 52L198 53L197 52z"/>
<path style="fill:#f4b5b7; stroke:none;" d="M77 53L78 54L77 53z"/>
<path style="fill:#ea6061; stroke:none;" d="M92 53L93 54L92 53M132 53L133 54L132 53z"/>
<path style="fill:#f4b5b7; stroke:none;" d="M147 53L148 54L147 53z"/>
<path style="fill:#ea6061; stroke:none;" d="M191 53L192 54L191 53z"/>
<path style="fill:#f4b5b7; stroke:none;" d="M192 53L193 54L192 53M221 53L222 54L221 53M183 54L184 55L183 54z"/>
<path style="fill:#ea6061; stroke:none;" d="M184 54L185 55L184 54M187 54L188 55L187 54z"/>
<path style="fill:#f09394; stroke:none;" d="M188 54L189 55L188 54M196 54L197 55L196 54z"/>
<path style="fill:#ea6061; stroke:none;" d="M221 54L222 55L221 54z"/>
<path style="fill:#f09394; stroke:none;" d="M76 55L77 56L76 55M91 55L92 56L91 55M133 55L134 56L133 55M148 55L149 56L148 55z"/>
<path style="fill:#ea6061; stroke:none;" d="M195 56L196 57L195 56z"/>
<path style="fill:#f4b5b7; stroke:none;" d="M222 56L223 57L222 56z"/>
<path style="fill:#ea6061; stroke:none;" d="M75 57L76 58L75 57z"/>
<path style="fill:#f4b5b7; stroke:none;" d="M90 57L91 58L90 57M134 57L135 58L134 57z"/>
<path style="fill:#ea6061; stroke:none;" d="M149 57L150 58L149 57z"/>
<path style="fill:#f4b5b7; stroke:none;" d="M194 57L195 58L194 57z"/>
<path style="fill:#f09394; stroke:none;" d="M222 57L223 58L222 57z"/>
<path style="fill:#f4b5b7; stroke:none;" d="M74 58L75 59L74 58M150 58L151 59L150 58z"/>
<path style="fill:#ea6061; stroke:none;" d="M222 58L223 59L222 58M74 59L75 60L74 59z"/>
<path style="fill:#f4b5b7; stroke:none;" d="M89 59L90 60L89 59M135 59L136 60L135 59z"/>
<path style="fill:#f09394; stroke:none;" d="M193 59L194 60L193 59M208.667 59.3333L209.333 59.6667L208.667 59.3333z"/>
<path style="fill:#f4b5b7; stroke:none;" d="M73 60L74 61L73 60z"/>
<path style="fill:#ea6061; stroke:none;" d="M88 60L89 61L88 60M136 60L137 61L136 60z"/>
<path style="fill:#f09394; stroke:none;" d="M151 60L152 61L151 60z"/>
<path style="fill:#ffffff; stroke:none;" d="M208 60C202.534 71.7076 195.192 82.8816 188.603 94C186.158 98.127 181.135 104.1 180.893 109C180.577 115.369 188.641 124.588 191.719 130C202.077 148.207 218.189 167.828 224 188L225 188L225 70C213.011 77.0756 214.25 67.1544 208 60z"/>
<path style="fill:#f4b5b7; stroke:none;" d="M209 60L210 61L209 60M223 60L224 61L223 60z"/>
<path style="fill:#ea6061; stroke:none;" d="M192 61L193 62L192 61z"/>
<path style="fill:#f09394; stroke:none;" d="M207 61L208 62L207 61M223 61L224 62L223 61M72 62L73 63L72 62M87 62L88 63L87 62M137 62L138 63L137 62M152 62L153 63L152 62z"/>
<path style="fill:#ea6061; stroke:none;" d="M210 62L211 63L210 62M191 63L192 64L191 63z"/>
<path style="fill:#f4b5b7; stroke:none;" d="M206 63L207 64L206 63M210 63L211 64L210 63z"/>
<path style="fill:#ea6061; stroke:none;" d="M71 64L72 65L71 64z"/>
<path style="fill:#f4b5b7; stroke:none;" d="M86 64L87 65L86 64M138 64L139 65L138 64z"/>
<path style="fill:#ea6061; stroke:none;" d="M153 64L154 65L153 64z"/>
<path style="fill:#f4b5b7; stroke:none;" d="M190 64L191 65L190 64z"/>
<path style="fill:#ea6061; stroke:none;" d="M205 64L206 65L205 64z"/>
<path style="fill:#f4b5b7; stroke:none;" d="M224 64L225 65L224 64M70 65L71 66L70 65z"/>
<path style="fill:#ea6061; stroke:none;" d="M85 65L86 66L85 65M139 65L140 66L139 65z"/>
<path style="fill:#f4b5b7; stroke:none;" d="M154 65L155 66L154 65z"/>
<path style="fill:#f09394; stroke:none;" d="M224 65L225 66L224 65z"/>
<path style="fill:#f4b5b7; stroke:none;" d="M85 66L86 67L85 66M139 66L140 67L139 66z"/>
<path style="fill:#f09394; stroke:none;" d="M189 66L190 67L189 66M204 66L205 67L204 66z"/>
<path style="fill:#ea6061; stroke:none;" d="M211 66L212 67L211 66M224.333 66.6667L224.667 67.3333L224.333 66.6667z"/>
<path style="fill:#f09394; stroke:none;" d="M69 67L70 68L69 67z"/>
<path style="fill:#ea6061; stroke:none;" d="M84 67L85 68L84 67M140 67L141 68L140 67z"/>
<path style="fill:#f09394; stroke:none;" d="M155 67L156 68L155 67z"/>
<path style="fill:#f4b5b7; stroke:none;" d="M211 67L212 68L211 67z"/>
<path style="fill:#ea6061; stroke:none;" d="M188 68L189 69L188 68z"/>
<path style="fill:#f4b5b7; stroke:none;" d="M203 68L204 69L203 68z"/>
<path style="fill:#f09394; stroke:none;" d="M224 68L225 69L224 68M68 69L69 70L68 69M83 69L84 70L83 69M141 69L142 70L141 69z"/>
<path style="fill:#ea6061; stroke:none;" d="M156 69L157 70L156 69z"/>
<path style="fill:#f4b5b7; stroke:none;" d="M187 69L188 70L187 69z"/>
<path style="fill:#ea6061; stroke:none;" d="M212 69L213 70L212 69z"/>
<path style="fill:#f4b5b7; stroke:none;" d="M224 69L225 70L224 69M157 70L158 71L157 70M202 70L203 71L202 70M212 70L213 71L212 70z"/>
<path style="fill:#ea6061; stroke:none;" d="M223 70L224 71L223 70M67 71L68 72L67 71z"/>
<path style="fill:#f4b5b7; stroke:none;" d="M82 71L83 72L82 71M142 71L143 72L142 71M186 71L187 72L186 71z"/>
<path style="fill:#ea6061; stroke:none;" d="M201 71L202 72L201 71z"/>
<path style="fill:#f09394; stroke:none;" d="M213 71L214 72L213 71z"/>
<path style="fill:#f4b5b7; stroke:none;" d="M66 72L67 73L66 72z"/>
<path style="fill:#ea6061; stroke:none;" d="M81 72L82 73L81 72M143 72L144 73L143 72z"/>
<path style="fill:#f4b5b7; stroke:none;" d="M158 72L159 73L158 72M214 72L215 73L214 72z"/>
<path style="fill:#ea6061; stroke:none;" d="M221 72L222 73L221 72z"/>
<path style="fill:#f09394; stroke:none;" d="M185 73L186 74L185 73M200 73L201 74L200 73z"/>
<path style="fill:#f4b5b7; stroke:none;" d="M216 73L217 74L216 73z"/>
<path style="fill:#f09394; stroke:none;" d="M217.667 73.3333L218.333 73.6667L217.667 73.3333z"/>
<path style="fill:#f4b5b7; stroke:none;" d="M219 73L220 74L219 73z"/>
<path style="fill:#f09394; stroke:none;" d="M65 74L66 75L65 74M80 74L81 75L80 74M144 74L145 75L144 74M159 74L160 75L159 74z"/>
<path style="fill:#ea6061; stroke:none;" d="M184 75L185 76L184 75z"/>
<path style="fill:#f4b5b7; stroke:none;" d="M199 75L200 76L199 75z"/>
<path style="fill:#ea6061; stroke:none;" d="M64 76L65 77L64 76z"/>
<path style="fill:#f4b5b7; stroke:none;" d="M79 76L80 77L79 76M145 76L146 77L145 76z"/>
<path style="fill:#ea6061; stroke:none;" d="M160 76L161 77L160 76z"/>
<path style="fill:#f4b5b7; stroke:none;" d="M183 76L184 77L183 76z"/>
<path style="fill:#ea6061; stroke:none;" d="M198 76L199 77L198 76z"/>
<path style="fill:#f4b5b7; stroke:none;" d="M63 77L64 78L63 77M161 77L162 78L161 77M78 78L79 79L78 78M146 78L147 79L146 78z"/>
<path style="fill:#f09394; stroke:none;" d="M182 78L183 79L182 78M197 78L198 79L197 78z"/>
<path style="fill:#f4b5b7; stroke:none;" d="M62 79L63 80L62 79z"/>
<path style="fill:#ea6061; stroke:none;" d="M77 79L78 80L77 79M147 79L148 80L147 79z"/>
<path style="fill:#f09394; stroke:none;" d="M162 79L163 80L162 79z"/>
<path style="fill:#ea6061; stroke:none;" d="M181 80L182 81L181 80z"/>
<path style="fill:#f09394; stroke:none;" d="M196 80L197 81L196 80M61 81L62 82L61 81M76 81L77 82L76 81M148 81L149 82L148 81z"/>
<path style="fill:#ea6061; stroke:none;" d="M163 81L164 82L163 81z"/>
<path style="fill:#f4b5b7; stroke:none;" d="M180 81L181 82L180 81M195 82L196 83L195 82z"/>
<path style="fill:#ea6061; stroke:none;" d="M60 83L61 84L60 83z"/>
<path style="fill:#f4b5b7; stroke:none;" d="M75 83L76 84L75 83M149 83L150 84L149 83z"/>
<path style="fill:#ea6061; stroke:none;" d="M164 83L165 84L164 83z"/>
<path style="fill:#f4b5b7; stroke:none;" d="M179 83L180 84L179 83z"/>
<path style="fill:#ea6061; stroke:none;" d="M194 83L195 84L194 83z"/>
<path style="fill:#f4b5b7; stroke:none;" d="M59 84L60 85L59 84z"/>
<path style="fill:#ea6061; stroke:none;" d="M74 84L75 85L74 84M150 84L151 85L150 84z"/>
<path style="fill:#f4b5b7; stroke:none;" d="M165 84L166 85L165 84z"/>
<path style="fill:#f09394; stroke:none;" d="M178 85L179 86L178 85M193 85L194 86L193 85M58 86L59 87L58 86M73 86L74 87L73 86M151 86L152 87L151 86M166 86L167 87L166 86z"/>
<path style="fill:#ea6061; stroke:none;" d="M177 87L178 88L177 87z"/>
<path style="fill:#f4b5b7; stroke:none;" d="M192 87L193 88L192 87z"/>
<path style="fill:#ea6061; stroke:none;" d="M57 88L58 89L57 88z"/>
<path style="fill:#f09394; stroke:none;" d="M72 88L73 89L72 88M152 88L153 89L152 88z"/>
<path style="fill:#ea6061; stroke:none;" d="M167 88L168 89L167 88z"/>
<path style="fill:#f4b5b7; stroke:none;" d="M176 88L177 89L176 88z"/>
<path style="fill:#ea6061; stroke:none;" d="M191 88L192 89L191 88z"/>
<path style="fill:#f4b5b7; stroke:none;" d="M56 89L57 90L56 89M168 89L169 90L168 89M191 89L192 90L191 89M71 90L72 91L71 90M153 90L154 91L153 90z"/>
<path style="fill:#f09394; stroke:none;" d="M175 90L176 91L175 90z"/>
<path style="fill:#ea6061; stroke:none;" d="M190 90L191 91L190 90z"/>
<path style="fill:#f4b5b7; stroke:none;" d="M55 91L56 92L55 91z"/>
<path style="fill:#ea6061; stroke:none;" d="M70 91L71 92L70 91M154 91L155 92L154 91z"/>
<path style="fill:#f4b5b7; stroke:none;" d="M169 91L170 92L169 91z"/>
<path style="fill:#f09394; stroke:none;" d="M174 92L175 93L174 92M189 92L190 93L189 92M54 93L55 94L54 93M69 93L70 94L69 93M155 93L156 94L155 93M170 93L171 94L170 93z"/>
<path style="fill:#ea6061; stroke:none;" d="M173 94L174 95L173 94z"/>
<path style="fill:#f4b5b7; stroke:none;" d="M188 94L189 95L188 94z"/>
<path style="fill:#ea6061; stroke:none;" d="M53 95L54 96L53 95z"/>
<path style="fill:#f4b5b7; stroke:none;" d="M68 95L69 96L68 95M156 95L157 96L156 95z"/>
<path style="fill:#ea6061; stroke:none;" d="M171 95L172 96L171 95z"/>
<path style="fill:#f4b5b7; stroke:none;" d="M172 95L173 96L172 95z"/>
<path style="fill:#ea6061; stroke:none;" d="M187 95L188 96L187 95z"/>
<path style="fill:#f4b5b7; stroke:none;" d="M52 96L53 97L52 96z"/>
<path style="fill:#ea6061; stroke:none;" d="M157 96L158 97L157 96z"/>
<path style="fill:#f4b5b7; stroke:none;" d="M67 97L68 98L67 97M157 97L158 98L157 97z"/>
<path style="fill:#f09394; stroke:none;" d="M186 97L187 98L186 97z"/>
<path style="fill:#f4b5b7; stroke:none;" d="M51 98L52 99L51 98z"/>
<path style="fill:#ea6061; stroke:none;" d="M66 98L67 99L66 98M158 98L159 99L158 98z"/>
<path style="fill:#f4b5b7; stroke:none;" d="M185 99L186 100L185 99z"/>
<path style="fill:#f09394; stroke:none;" d="M50 100L51 101L50 100M65 100L66 101L65 100M159 100L160 101L159 100z"/>
<path style="fill:#f4b5b7; stroke:none;" d="M184 101L185 102L184 101z"/>
<path style="fill:#ea6061; stroke:none;" d="M49 102L50 103L49 102z"/>
<path style="fill:#f4b5b7; stroke:none;" d="M64 102L65 103L64 102M160 102L161 103L160 102z"/>
<path style="fill:#ea6061; stroke:none;" d="M183 102L184 103L183 102z"/>
<path style="fill:#f4b5b7; stroke:none;" d="M48 103L49 104L48 103z"/>
<path style="fill:#ea6061; stroke:none;" d="M63 103L64 104L63 103M161 103L162 104L161 103z"/>
<path style="fill:#f09394; stroke:none;" d="M182 104L183 105L182 104M47 105L48 106L47 105M62 105L63 106L62 105M162 105L163 106L162 105z"/>
<path style="fill:#f4b5b7; stroke:none;" d="M181 106L182 107L181 106z"/>
<path style="fill:#ea6061; stroke:none;" d="M46 107L47 108L46 107z"/>
<path style="fill:#f09394; stroke:none;" d="M61 107L62 108L61 107z"/>
<path style="fill:#f4b5b7; stroke:none;" d="M163 107L164 108L163 107z"/>
<path style="fill:#ea6061; stroke:none;" d="M180 107L181 108L180 107z"/>
<path style="fill:#f4b5b7; stroke:none;" d="M45 108L46 109L45 108M60 109L61 110L60 109M109.667 109.333L110.333 109.667L109.667 109.333z"/>
<path style="fill:#f09394; stroke:none;" d="M111 109L111 110L114 110L111 109z"/>
<path style="fill:#f4b5b7; stroke:none;" d="M114.667 109.333L115.333 109.667L114.667 109.333z"/>
<path style="fill:#f09394; stroke:none;" d="M164 109L165 110L164 109z"/>
<path style="fill:#f4b5b7; stroke:none;" d="M44 110L45 111L44 110z"/>
<path style="fill:#ea6061; stroke:none;" d="M59 110L60 111L59 110M107 110L108 111L107 110M117 110L118 111L117 110z"/>
<path style="fill:#f09394; stroke:none;" d="M180 110L181 111L180 110M105 111L106 112L105 111M119 111L120 112L119 111z"/>
<path style="fill:#ea6061; stroke:none;" d="M163 111L164 112L163 111z"/>
<path style="fill:#f09394; stroke:none;" d="M43 112L44 113L43 112M58 112L59 113L58 112z"/>
<path style="fill:#f4b5b7; stroke:none;" d="M162 112L163 113L162 112z"/>
<path style="fill:#f09394; stroke:none;" d="M181 112L182 113L181 112z"/>
<path style="fill:#ea6061; stroke:none;" d="M42 114L43 115L42 114z"/>
<path style="fill:#f4b5b7; stroke:none;" d="M57 114L58 115L57 114M161 114L162 115L161 114z"/>
<path style="fill:#ea6061; stroke:none;" d="M182 114L183 115L182 114z"/>
<path style="fill:#f4b5b7; stroke:none;" d="M41 115L42 116L41 115z"/>
<path style="fill:#ea6061; stroke:none;" d="M56 115L57 116L56 115z"/>
<path style="fill:#f09394; stroke:none;" d="M101 115L102 116L101 115M123 115L124 116L123 115z"/>
<path style="fill:#f4b5b7; stroke:none;" d="M183 115L184 116L183 115M56 116L57 117L56 116z"/>
<path style="fill:#f09394; stroke:none;" d="M160 116L161 117L160 116M40 117L41 118L40 117z"/>
<path style="fill:#ea6061; stroke:none;" d="M55 117L56 118L55 117M100 117L101 118L100 117M124 117L125 118L124 117z"/>
<path style="fill:#f09394; stroke:none;" d="M184 117L185 118L184 117z"/>
<path style="fill:#f4b5b7; stroke:none;" d="M99 118L100 119L99 118M125 118L126 119L125 118z"/>
<path style="fill:#ea6061; stroke:none;" d="M159 118L160 119L159 118M39 119L40 120L39 119z"/>
<path style="fill:#f09394; stroke:none;" d="M54 119L55 120L54 119z"/>
<path style="fill:#f4b5b7; stroke:none;" d="M158 119L159 120L158 119z"/>
<path style="fill:#ea6061; stroke:none;" d="M185 119L186 120L185 119z"/>
<path style="fill:#f4b5b7; stroke:none;" d="M38 120L39 121L38 120z"/>
<path style="fill:#f09394; stroke:none;" d="M98 120L99 121L98 120M126 120L127 121L126 120z"/>
<path style="fill:#f4b5b7; stroke:none;" d="M186 120L187 121L186 120z"/>
<path style="fill:#ea6061; stroke:none;" d="M38 121L39 122L38 121z"/>
<path style="fill:#f4b5b7; stroke:none;" d="M53 121L54 122L53 121z"/>
<path style="fill:#f09394; stroke:none;" d="M157 121L158 122L157 121z"/>
<path style="fill:#f4b5b7; stroke:none;" d="M37 122L38 123L37 122z"/>
<path style="fill:#ea6061; stroke:none;" d="M52 122L53 123L52 122M97 122L98 123L97 122M112 122L113 123L112 122M127 122L128 123L127 122M172 122L173 123L172 122z"/>
<path style="fill:#f4b5b7; stroke:none;" d="M187 122L188 123L187 122M96 123L97 124L96 123z"/>
<path style="fill:#ffffff; stroke:none;" d="M112 123C102.688 140.679 91.9565 157.676 82 175C79.2343 179.812 71.2685 189.063 74.2191 194.891C77.953 202.266 96.1124 199 103 199L183 199C189.3 199 206.095 201.936 209.971 195.721C213.634 189.85 206.042 180.854 203.281 176C193.543 158.882 184.625 138.08 172 123C165.442 132.942 153.256 167.754 137.004 159.543C124.479 153.216 121.266 132.896 112 123z"/>
<path style="fill:#f4b5b7; stroke:none;" d="M128 123L129 124L128 123z"/>
<path style="fill:#ea6061; stroke:none;" d="M156 123L157 124L156 123z"/>
<path style="fill:#f09394; stroke:none;" d="M171 123L172 124L171 123M36 124L37 125L36 124M51 124L52 125L51 124z"/>
<path style="fill:#f4b5b7; stroke:none;" d="M111 124L112 125L111 124M113 124L114 125L113 124M155 124L156 125L155 124z"/>
<path style="fill:#f09394; stroke:none;" d="M173 124L174 125L173 124M188 124L189 125L188 124z"/>
<path style="fill:#f4b5b7; stroke:none;" d="M95 125L96 126L95 125z"/>
<path style="fill:#ea6061; stroke:none;" d="M110 125L111 126L110 125M114 125L115 126L114 125z"/>
<path style="fill:#f4b5b7; stroke:none;" d="M129 125L130 126L129 125M170 125L171 126L170 125z"/>
<path style="fill:#ea6061; stroke:none;" d="M35 126L36 127L35 126z"/>
<path style="fill:#f4b5b7; stroke:none;" d="M50 126L51 127L50 126M154 126L155 127L154 126z"/>
<path style="fill:#ea6061; stroke:none;" d="M169 126L170 127L169 126z"/>
<path style="fill:#f4b5b7; stroke:none;" d="M174 126L175 127L174 126z"/>
<path style="fill:#ea6061; stroke:none;" d="M189 126L190 127L189 126z"/>
<path style="fill:#f4b5b7; stroke:none;" d="M34 127L35 128L34 127z"/>
<path style="fill:#f09394; stroke:none;" d="M94 127L95 128L94 127M109 127L110 128L109 127M115 127L116 128L115 127M130 127L131 128L130 127z"/>
<path style="fill:#f4b5b7; stroke:none;" d="M190 127L191 128L190 127M49 128L50 129L49 128z"/>
<path style="fill:#f09394; stroke:none;" d="M153 128L154 129L153 128M168 128L169 129L168 128z"/>
<path style="fill:#f4b5b7; stroke:none;" d="M175 128L176 129L175 128z"/>
<path style="fill:#f09394; stroke:none;" d="M33 129L34 130L33 129z"/>
<path style="fill:#ea6061; stroke:none;" d="M48 129L49 130L48 129M93 129L94 130L93 129z"/>
<path style="fill:#f4b5b7; stroke:none;" d="M108 129L109 130L108 129M116 129L117 130L116 129z"/>
<path style="fill:#ea6061; stroke:none;" d="M131 129L132 130L131 129M176 129L177 130L176 129z"/>
<path style="fill:#f09394; stroke:none;" d="M191 129L192 130L191 129z"/>
<path style="fill:#f4b5b7; stroke:none;" d="M92 130L93 131L92 130M132 130L133 131L132 130z"/>
<path style="fill:#ea6061; stroke:none;" d="M152 130L153 131L152 130z"/>
<path style="fill:#f4b5b7; stroke:none;" d="M167 130L168 131L167 130z"/>
<path style="fill:#f09394; stroke:none;" d="M32 131L33 132L32 131M47 131L48 132L47 131z"/>
<path style="fill:#f4b5b7; stroke:none;" d="M107 131L108 132L107 131M117 131L118 132L117 131M151 131L152 132L151 131z"/>
<path style="fill:#f09394; stroke:none;" d="M177 131L178 132L177 131M192 131L193 132L192 131M91 132L92 133L91 132z"/>
<path style="fill:#ea6061; stroke:none;" d="M106 132L107 133L106 132M118 132L119 133L118 132z"/>
<path style="fill:#f09394; stroke:none;" d="M133 132L134 133L133 132z"/>
<path style="fill:#f4b5b7; stroke:none;" d="M166 132L167 133L166 132z"/>
<path style="fill:#ea6061; stroke:none;" d="M31 133L32 134L31 133z"/>
<path style="fill:#f4b5b7; stroke:none;" d="M46 133L47 134L46 133z"/>
<path style="fill:#f09394; stroke:none;" d="M150 133L151 134L150 133z"/>
<path style="fill:#ea6061; stroke:none;" d="M165 133L166 134L165 133z"/>
<path style="fill:#f4b5b7; stroke:none;" d="M178 133L179 134L178 133z"/>
<path style="fill:#ea6061; stroke:none;" d="M193 133L194 134L193 133z"/>
<path style="fill:#f4b5b7; stroke:none;" d="M30 134L31 135L30 134z"/>
<path style="fill:#ea6061; stroke:none;" d="M45 134L46 135L45 134M90 134L91 135L90 134z"/>
<path style="fill:#f09394; stroke:none;" d="M105 134L106 135L105 134M119 134L120 135L119 134z"/>
<path style="fill:#ea6061; stroke:none;" d="M134 134L135 135L134 134M179 134L180 135L179 134z"/>
<path style="fill:#f4b5b7; stroke:none;" d="M194 134L195 135L194 134M89 135L90 136L89 135z"/>
<path style="fill:#ea6061; stroke:none;" d="M149 135L150 136L149 135z"/>
<path style="fill:#f09394; stroke:none;" d="M164 135L165 136L164 135M29 136L30 137L29 136z"/>
<path style="fill:#ea6061; stroke:none;" d="M44 136L45 137L44 136M89 136L90 137L89 136z"/>
<path style="fill:#f4b5b7; stroke:none;" d="M104 136L105 137L104 136M120 136L121 137L120 136z"/>
<path style="fill:#ea6061; stroke:none;" d="M135 136L136 137L135 136M180 136L181 137L180 136z"/>
<path style="fill:#f09394; stroke:none;" d="M195 136L196 137L195 136z"/>
<path style="fill:#f4b5b7; stroke:none;" d="M88 137L89 138L88 137z"/>
<path style="fill:#ea6061; stroke:none;" d="M103 137L104 138L103 137M121 137L122 138L121 137z"/>
<path style="fill:#f4b5b7; stroke:none;" d="M136 137L137 138L136 137z"/>
<path style="fill:#ea6061; stroke:none;" d="M148 137L149 138L148 137z"/>
<path style="fill:#f4b5b7; stroke:none;" d="M163 137L164 138L163 137z"/>
<path style="fill:#ea6061; stroke:none;" d="M28 138L29 139L28 138z"/>
<path style="fill:#f09394; stroke:none;" d="M43 138L44 139L43 138z"/>
<path style="fill:#f4b5b7; stroke:none;" d="M147 138L148 139L147 138z"/>
<path style="fill:#ea6061; stroke:none;" d="M162 138L163 139L162 138z"/>
<path style="fill:#f09394; stroke:none;" d="M181 138L182 139L181 138z"/>
<path style="fill:#ea6061; stroke:none;" d="M196 138L197 139L196 138z"/>
<path style="fill:#f4b5b7; stroke:none;" d="M27 139L28 140L27 139z"/>
<path style="fill:#f09394; stroke:none;" d="M87 139L88 140L87 139M102 139L103 140L102 139M122 139L123 140L122 139M137 139L138 140L137 139z"/>
<path style="fill:#f4b5b7; stroke:none;" d="M197 139L198 140L197 139M42 140L43 141L42 140z"/>
<path style="fill:#f09394; stroke:none;" d="M146 140L147 141L146 140z"/>
<path style="fill:#ea6061; stroke:none;" d="M161 140L162 141L161 140z"/>
<path style="fill:#f4b5b7; stroke:none;" d="M182 140L183 141L182 140M26 141L27 142L26 141z"/>
<path style="fill:#ea6061; stroke:none;" d="M41 141L42 142L41 141M86 141L87 142L86 141z"/>
<path style="fill:#f4b5b7; stroke:none;" d="M101 141L102 142L101 141z"/>
<path style="fill:#f09394; stroke:none;" d="M123 141L124 142L123 141z"/>
<path style="fill:#ea6061; stroke:none;" d="M138 141L139 142L138 141M183 141L184 142L183 141z"/>
<path style="fill:#f4b5b7; stroke:none;" d="M198 141L199 142L198 141M85 142L86 143L85 142M139 142L140 143L139 142z"/>
<path style="fill:#ea6061; stroke:none;" d="M145 142L146 143L145 142z"/>
<path style="fill:#f09394; stroke:none;" d="M160 142L161 143L160 142M25 143L26 144L25 143M40 143L41 144L40 143z"/>
<path style="fill:#f4b5b7; stroke:none;" d="M100 143L101 144L100 143M124 143L125 144L124 143M144 143L145 144L144 143z"/>
<path style="fill:#f09394; stroke:none;" d="M184 143L185 144L184 143M199 143L200 144L199 143M84 144L85 145L84 144z"/>
<path style="fill:#ea6061; stroke:none;" d="M99 144L100 145L99 144M125 144L126 145L125 144z"/>
<path style="fill:#f4b5b7; stroke:none;" d="M140 144L141 145L140 144M159 144L160 145L159 144z"/>
<path style="fill:#ea6061; stroke:none;" d="M24 145L25 146L24 145z"/>
<path style="fill:#f4b5b7; stroke:none;" d="M39 145L40 146L39 145M143 145L144 146L143 145z"/>
<path style="fill:#ea6061; stroke:none;" d="M158 145L159 146L158 145z"/>
<path style="fill:#f4b5b7; stroke:none;" d="M185 145L186 146L185 145z"/>
<path style="fill:#ea6061; stroke:none;" d="M200 145L201 146L200 145z"/>
<path style="fill:#f4b5b7; stroke:none;" d="M23 146L24 147L23 146z"/>
<path style="fill:#f09394; stroke:none;" d="M83 146L84 147L83 146M98 146L99 147L98 146M126 146L127 147L126 146M141 146L142 147L141 146z"/>
<path style="fill:#f4b5b7; stroke:none;" d="M201 146L202 147L201 146M38 147L39 148L38 147z"/>
<path style="fill:#ea6061; stroke:none;" d="M142 147L143 148L142 147z"/>
<path style="fill:#f09394; stroke:none;" d="M157 147L158 148L157 147z"/>
<path style="fill:#f4b5b7; stroke:none;" d="M186 147L187 148L186 147z"/>
<path style="fill:#f09394; stroke:none;" d="M22 148L23 149L22 148z"/>
<path style="fill:#ea6061; stroke:none;" d="M37 148L38 149L37 148M82 148L83 149L82 148z"/>
<path style="fill:#f4b5b7; stroke:none;" d="M97 148L98 149L97 148M127 148L128 149L127 148z"/>
<path style="fill:#ea6061; stroke:none;" d="M187 148L188 149L187 148z"/>
<path style="fill:#f09394; stroke:none;" d="M202 148L203 149L202 148z"/>
<path style="fill:#f4b5b7; stroke:none;" d="M81 149L82 150L81 149z"/>
<path style="fill:#ea6061; stroke:none;" d="M96 149L97 150L96 149z"/>
<path style="fill:#f4b5b7; stroke:none;" d="M156 149L157 150L156 149z"/>
<path style="fill:#ea6061; stroke:none;" d="M21 150L22 151L21 150z"/>
<path style="fill:#f09394; stroke:none;" d="M36 150L37 151L36 150z"/>
<path style="fill:#f4b5b7; stroke:none;" d="M96 150L97 151L96 150M128 150L129 151L128 150z"/>
<path style="fill:#f09394; stroke:none;" d="M188 150L189 151L188 150z"/>
<path style="fill:#ea6061; stroke:none;" d="M203 150L204 151L203 150z"/>
<path style="fill:#f4b5b7; stroke:none;" d="M20 151L21 152L20 151z"/>
<path style="fill:#f09394; stroke:none;" d="M80 151L81 152L80 151z"/>
<path style="fill:#ea6061; stroke:none;" d="M95 151L96 152L95 151M129 151L130 152L129 151z"/>
<path style="fill:#f4b5b7; stroke:none;" d="M155 151L156 152L155 151M204 151L205 152L204 151z"/>
<path style="fill:#ea6061; stroke:none;" d="M20 152L21 153L20 152z"/>
<path style="fill:#f4b5b7; stroke:none;" d="M35 152L36 153L35 152z"/>
<path style="fill:#ea6061; stroke:none;" d="M154 152L155 153L154 152z"/>
<path style="fill:#f4b5b7; stroke:none;" d="M189 152L190 153L189 152z"/>
<path style="fill:#ea6061; stroke:none;" d="M204 152L205 153L204 152z"/>
<path style="fill:#f4b5b7; stroke:none;" d="M19 153L20 154L19 153z"/>
<path style="fill:#ea6061; stroke:none;" d="M34 153L35 154L34 153M79 153L80 154L79 153z"/>
<path style="fill:#f09394; stroke:none;" d="M94 153L95 154L94 153M130 153L131 154L130 153z"/>
<path style="fill:#ea6061; stroke:none;" d="M190 153L191 154L190 153z"/>
<path style="fill:#f4b5b7; stroke:none;" d="M205 153L206 154L205 153M78 154L79 155L78 154z"/>
<path style="fill:#f09394; stroke:none;" d="M153 154L154 155L153 154M18 155L19 156L18 155M33 155L34 156L33 155z"/>
<path style="fill:#f4b5b7; stroke:none;" d="M93 155L94 156L93 155M131 155L132 156L131 155z"/>
<path style="fill:#f09394; stroke:none;" d="M191 155L192 156L191 155M206 155L207 156L206 155z"/>
<path style="fill:#f4b5b7; stroke:none;" d="M77 156L78 157L77 156z"/>
<path style="fill:#ea6061; stroke:none;" d="M92 156L93 157L92 156z"/>
<path style="fill:#f4b5b7; stroke:none;" d="M132 156L133 157L132 156z"/>
<path style="fill:#ea6061; stroke:none;" d="M17 157L18 158L17 157z"/>
<path style="fill:#f09394; stroke:none;" d="M32 157L33 158L32 157z"/>
<path style="fill:#f4b5b7; stroke:none;" d="M133 157L134 158L133 157z"/>
<path style="fill:#f09394; stroke:none;" d="M192 157L193 158L192 157z"/>
<path style="fill:#ea6061; stroke:none;" d="M207 157L208 158L207 157z"/>
<path style="fill:#f4b5b7; stroke:none;" d="M16 158L17 159L16 158z"/>
<path style="fill:#f09394; stroke:none;" d="M76 158L77 159L76 158M91 158L92 159L91 158z"/>
<path style="fill:#f4b5b7; stroke:none;" d="M134 158L135 159L134 158z"/>
<path style="fill:#ea6061; stroke:none;" d="M149 158L150 159L149 158z"/>
<path style="fill:#f4b5b7; stroke:none;" d="M208 158L209 159L208 158M31 159L32 160L31 159M136 159L137 160L136 159z"/>
<path style="fill:#ea6061; stroke:none;" d="M147 159L148 160L147 159z"/>
<path style="fill:#f4b5b7; stroke:none;" d="M148 159L149 160L148 159M193 159L194 160L193 159M15 160L16 161L15 160z"/>
<path style="fill:#ea6061; stroke:none;" d="M30 160L31 161L30 160M75 160L76 161L75 160z"/>
<path style="fill:#f4b5b7; stroke:none;" d="M90 160L91 161L90 160M138 160L139 161L138 160z"/>
<path style="fill:#f09394; stroke:none;" d="M139 160L140 161L139 160z"/>
<path style="fill:#ea6061; stroke:none;" d="M140 160L140 161L144 161L140 160z"/>
<path style="fill:#f09394; stroke:none;" d="M144 160L145 161L144 160z"/>
<path style="fill:#f4b5b7; stroke:none;" d="M145 160L146 161L145 160z"/>
<path style="fill:#ea6061; stroke:none;" d="M194 160L195 161L194 160z"/>
<path style="fill:#f4b5b7; stroke:none;" d="M209 160L210 161L209 160M74 161L75 162L74 161z"/>
<path style="fill:#f09394; stroke:none;" d="M14 162L15 163L14 162M29 162L30 163L29 162z"/>
<path style="fill:#f4b5b7; stroke:none;" d="M89 162L90 163L89 162z"/>
<path style="fill:#f09394; stroke:none;" d="M195 162L196 163L195 162M210 162L211 163L210 162M73 163L74 164L73 163z"/>
<path style="fill:#ea6061; stroke:none;" d="M88 163L89 164L88 163M13 164L14 165L13 164z"/>
<path style="fill:#f4b5b7; stroke:none;" d="M28 164L29 165L28 164M196 164L197 165L196 164z"/>
<path style="fill:#ea6061; stroke:none;" d="M211 164L212 165L211 164z"/>
<path style="fill:#f4b5b7; stroke:none;" d="M12 165L13 166L12 165z"/>
<path style="fill:#ea6061; stroke:none;" d="M27 165L28 166L27 165M72 165L73 166L72 165z"/>
<path style="fill:#f09394; stroke:none;" d="M87 165L88 166L87 165z"/>
<path style="fill:#ea6061; stroke:none;" d="M197 165L198 166L197 165z"/>
<path style="fill:#f4b5b7; stroke:none;" d="M212 165L213 166L212 165M27 166L28 167L27 166M197 166L198 167L197 166z"/>
<path style="fill:#f09394; stroke:none;" d="M11 167L12 168L11 167z"/>
<path style="fill:#ea6061; stroke:none;" d="M26 167L27 168L26 167M71 167L72 168L71 167z"/>
<path style="fill:#f4b5b7; stroke:none;" d="M86 167L87 168L86 167z"/>
<path style="fill:#ea6061; stroke:none;" d="M198 167L199 168L198 167z"/>
<path style="fill:#f09394; stroke:none;" d="M213 167L214 168L213 167z"/>
<path style="fill:#f4b5b7; stroke:none;" d="M70 168L71 169L70 168z"/>
<path style="fill:#ea6061; stroke:none;" d="M85 168L86 169L85 168M10 169L11 170L10 169z"/>
<path style="fill:#f09394; stroke:none;" d="M25 169L26 170L25 169M199 169L200 170L199 169z"/>
<path style="fill:#ea6061; stroke:none;" d="M214 169L215 170L214 169z"/>
<path style="fill:#f4b5b7; stroke:none;" d="M9 170L10 171L9 170z"/>
<path style="fill:#f09394; stroke:none;" d="M69 170L70 171L69 170z"/>
<path style="fill:#ea6061; stroke:none;" d="M84 170L85 171L84 170z"/>
<path style="fill:#f4b5b7; stroke:none;" d="M215 170L216 171L215 170M24 171L25 172L24 171M200 171L201 172L200 171M8 172L9 173L8 172z"/>
<path style="fill:#ea6061; stroke:none;" d="M23 172L24 173L23 172M68 172L69 173L68 172z"/>
<path style="fill:#f09394; stroke:none;" d="M83 172L84 173L83 172z"/>
<path style="fill:#ea6061; stroke:none;" d="M201 172L202 173L201 172z"/>
<path style="fill:#f4b5b7; stroke:none;" d="M216 172L217 173L216 172M67 173L68 174L67 173z"/>
<path style="fill:#f09394; stroke:none;" d="M7 174L8 175L7 174M22 174L23 175L22 174z"/>
<path style="fill:#f4b5b7; stroke:none;" d="M82 174L83 175L82 174z"/>
<path style="fill:#f09394; stroke:none;" d="M202 174L203 175L202 174M217 174L218 175L217 174z"/>
<path style="fill:#f4b5b7; stroke:none;" d="M66 175L67 176L66 175z"/>
<path style="fill:#ea6061; stroke:none;" d="M81 175L82 176L81 175M6 176L7 177L6 176z"/>
<path style="fill:#f4b5b7; stroke:none;" d="M21 176L22 177L21 176M203 176L204 177L203 176z"/>
<path style="fill:#ea6061; stroke:none;" d="M218 176L219 177L218 176z"/>
<path style="fill:#f4b5b7; stroke:none;" d="M5 177L6 178L5 177z"/>
<path style="fill:#f09394; stroke:none;" d="M65 177L66 178L65 177M80 177L81 178L80 177z"/>
<path style="fill:#f4b5b7; stroke:none;" d="M219 177L220 178L219 177M20 178L21 179L20 178M204 178L205 179L204 178z"/>
<path style="fill:#f09394; stroke:none;" d="M4 179L5 180L4 179z"/>
<path style="fill:#ea6061; stroke:none;" d="M19 179L20 180L19 179M64 179L65 180L64 179z"/>
<path style="fill:#f4b5b7; stroke:none;" d="M79 179L80 180L79 179z"/>
<path style="fill:#ea6061; stroke:none;" d="M205 179L206 180L205 179z"/>
<path style="fill:#f09394; stroke:none;" d="M220 179L221 180L220 179z"/>
<path style="fill:#f4b5b7; stroke:none;" d="M63 180L64 181L63 180z"/>
<path style="fill:#f09394; stroke:none;" d="M3 181L4 182L3 181M18 181L19 182L18 181z"/>
<path style="fill:#f4b5b7; stroke:none;" d="M78 181L79 182L78 181z"/>
<path style="fill:#f09394; stroke:none;" d="M206 181L207 182L206 181M221 181L222 182L221 181M62 182L63 183L62 182z"/>
<path style="fill:#ea6061; stroke:none;" d="M77 182L78 183L77 182M2 183L3 184L2 183z"/>
<path style="fill:#f4b5b7; stroke:none;" d="M17 183L18 184L17 183M207 183L208 184L207 183z"/>
<path style="fill:#ea6061; stroke:none;" d="M222 183L223 184L222 183M16 184L17 185L16 184z"/>
<path style="fill:#f09394; stroke:none;" d="M61 184L62 185L61 184M76 184L77 185L76 184z"/>
<path style="fill:#ea6061; stroke:none;" d="M208 184L209 185L208 184z"/>
<path style="fill:#f09394; stroke:none;" d="M1 185L2 186L1 185z"/>
<path style="fill:#f4b5b7; stroke:none;" d="M208 185L209 186L208 185z"/>
<path style="fill:#f09394; stroke:none;" d="M223 185L224 186L223 185z"/>
<path style="fill:#ea6061; stroke:none;" d="M15 186L16 187L15 186z"/>
<path style="fill:#f4b5b7; stroke:none;" d="M60 186L61 187L60 186M75 186L76 187L75 186z"/>
<path style="fill:#ea6061; stroke:none;" d="M209 186L210 187L209 186z"/>
<path style="fill:#f4b5b7; stroke:none;" d="M0.333333 187.667L0.666667 188.333L0.333333 187.667z"/>
<path style="fill:#f09394; stroke:none;" d="M60 187L61 188L60 187z"/>
<path style="fill:#ea6061; stroke:none;" d="M74 187L75 188L74 187z"/>
<path style="fill:#f09394; stroke:none;" d="M14 188L15 189L14 188z"/>
<path style="fill:#ea6061; stroke:none;" d="M60 188L61 189L60 188z"/>
<path style="fill:#f09394; stroke:none;" d="M210 188L211 189L210 188z"/>
<path style="fill:#f4b5b7; stroke:none;" d="M224 188L225 189L224 188z"/>
<path style="fill:#f09394; stroke:none;" d="M0 189L1 190L0 189z"/>
<path style="fill:#ea6061; stroke:none;" d="M73 189L74 190L73 189z"/>
<path style="fill:#f09394; stroke:none;" d="M224 189L225 190L224 189z"/>
<path style="fill:#ea6061; stroke:none;" d="M0 190L0 195L1 195L0 190z"/>
<path style="fill:#f09394; stroke:none;" d="M13 190L14 191L13 190z"/>
<path style="fill:#f4b5b7; stroke:none;" d="M73 190L74 191L73 190z"/>
<path style="fill:#f09394; stroke:none;" d="M211 190L212 191L211 190z"/>
<path style="fill:#ea6061; stroke:none;" d="M224 190L224 195L225 195L224 190z"/>
<path style="fill:#f4b5b7; stroke:none;" d="M13 191L13 194L14 194L13 191M211 191L211 194L212 194L211 191z"/>
<path style="fill:#ea6061; stroke:none;" d="M13 194L14 195L13 194z"/>
<path style="fill:#f4b5b7; stroke:none;" d="M73 194L74 195L73 194z"/>
<path style="fill:#ea6061; stroke:none;" d="M211 194L212 195L211 194z"/>
<path style="fill:#f09394; stroke:none;" d="M0 195L1 196L0 195M224 195L225 196L224 195z"/>
<path style="fill:#f4b5b7; stroke:none;" d="M0 196L1 197L0 196z"/>
<path style="fill:#ea6061; stroke:none;" d="M14 196L15 197L14 196M60 196L61 197L60 196z"/>
<path style="fill:#f09394; stroke:none;" d="M74 196L75 197L74 196z"/>
<path style="fill:#ea6061; stroke:none;" d="M210 196L211 197L210 196z"/>
<path style="fill:#f4b5b7; stroke:none;" d="M224 196L225 197L224 196z"/>
<path style="fill:#ea6061; stroke:none;" d="M15 197L16 198L15 197z"/>
<path style="fill:#f4b5b7; stroke:none;" d="M60 197L61 198L60 197z"/>
<path style="fill:#f09394; stroke:none;" d="M75 197L76 198L75 197z"/>
<path style="fill:#ea6061; stroke:none;" d="M209 197L210 198L209 197z"/>
<path style="fill:#f09394; stroke:none;" d="M17 198L18 199L17 198z"/>
<path style="fill:#f4b5b7; stroke:none;" d="M18 198L19 199L18 198M77 198L78 199L77 198M206 198L207 199L206 198z"/>
<path style="fill:#f09394; stroke:none;" d="M207 198L208 199L207 198z"/>
<path style="fill:#ea6061; stroke:none;" d="M223 198L224 199L223 198z"/>
<path style="fill:#f09394; stroke:none;" d="M1 199L2 200L1 199z"/>
<path style="fill:#ea6061; stroke:none;" d="M45 199L46 200L45 199z"/>
<path style="fill:#f4b5b7; stroke:none;" d="M46 199L47 200L46 199z"/>
<path style="fill:#ea6061; stroke:none;" d="M61 199L62 200L61 199z"/>
<path style="fill:#f4b5b7; stroke:none;" d="M223 199L224 200L223 199z"/>
<path style="fill:#ea6061; stroke:none;" d="M47 200L48 201L47 200z"/>
<path style="fill:#f4b5b7; stroke:none;" d="M61 200L62 201L61 200z"/>
<path style="fill:#f09394; stroke:none;" d="M2 201L3 202L2 201z"/>
<path style="fill:#ea6061; stroke:none;" d="M48 201L49 202L48 201M62 201L63 202L62 201z"/>
<path style="fill:#f09394; stroke:none;" d="M222 201L223 202L222 201z"/>
<path style="fill:#f4b5b7; stroke:none;" d="M49 202L50 203L49 202M3 203L4 204L3 203z"/>
<path style="fill:#ea6061; stroke:none;" d="M49 203L50 204L49 203z"/>
<path style="fill:#f09394; stroke:none;" d="M63 203L64 204L63 203z"/>
<path style="fill:#f4b5b7; stroke:none;" d="M221 203L222 204L221 203z"/>
<path style="fill:#f09394; stroke:none;" d="M4 204L5 205L4 204M220 204L221 205L220 204z"/>
<path style="fill:#ea6061; stroke:none;" d="M5 205L6 206L5 205M219 205L220 206L219 205M6 206L7 207L6 206M218 206L219 207L218 206z"/>
<path style="fill:#f09394; stroke:none;" d="M7 207L8 208L7 207z"/>
<path style="fill:#ea6061; stroke:none;" d="M49 207L50 208L49 207z"/>
<path style="fill:#f09394; stroke:none;" d="M217 207L218 208L217 207z"/>
<path style="fill:#f4b5b7; stroke:none;" d="M8 208L9 209L8 208M49 208L50 209L49 208z"/>
<path style="fill:#f09394; stroke:none;" d="M68 208L69 209L68 208z"/>
<path style="fill:#f4b5b7; stroke:none;" d="M216 208L217 209L216 208z"/>
<path style="fill:#ea6061; stroke:none;" d="M10 209L11 210L10 209z"/>
<path style="fill:#f09394; stroke:none;" d="M48 209L49 210L48 209z"/>
<path style="fill:#f4b5b7; stroke:none;" d="M69 209L70 210L69 209z"/>
<path style="fill:#ea6061; stroke:none;" d="M70 209L71 210L70 209M214 209L215 210L214 209z"/>
<path style="fill:#f09394; stroke:none;" d="M12 210L13 211L12 210M47 210L48 211L47 210z"/>
<path style="fill:#f4b5b7; stroke:none;" d="M71 210L72 211L71 210z"/>
<path style="fill:#ea6061; stroke:none;" d="M72 210L73 211L72 210M212 210L213 211L212 210z"/>
<path style="fill:#f4b5b7; stroke:none;" d="M14 211L15 212L14 211z"/>
<path style="fill:#f09394; stroke:none;" d="M15 211L16 212L15 211z"/>
<path style="fill:#ea6061; stroke:none;" d="M16 211L17 212L16 211M45 211L46 212L45 211z"/>
<path style="fill:#f4b5b7; stroke:none;" d="M46 211L47 212L46 211M74 211L75 212L74 211z"/>
<path style="fill:#f09394; stroke:none;" d="M75 211L76 212L75 211z"/>
<path style="fill:#ea6061; stroke:none;" d="M76 211L77 212L76 211M208 211L209 212L208 211z"/>
<path style="fill:#f09394; stroke:none;" d="M209 211L210 212L209 211z"/>
<path style="fill:#f4b5b7; stroke:none;" d="M210 211L211 212L210 211z"/>
</svg>
